<svg height="417" width="2500" xmlns="http://www.w3.org/2000/svg" viewBox="0 0 300 50"><path d="M0 0h14v50H0zM23 19h14v31H23zM23 0h14v12H23zM46 0v50H69.946C77.699 50 84 43.06 84 34.5 84 25.94 77.7 19 69.946 19h-9.923V0H46zm14.023 30h5.947c2.2 0 3.976 1.801 3.976 4s-1.775 3.969-3.976 3.969h-5.947z"/><g fill="#e74a45"><path d="M104.025 0C96.29 0 90.001 6.94 90.001 15.5v18.624c-.003.128 0 .247 0 .375 0 8.56 6.288 15.5 14.024 15.5H138.975C146.714 50 153 43.06 153 34.5c0-8.56-6.287-15.5-14.024-15.5h-18.991v11h15.024c2.196 0 3.967 1.802 3.967 4s-1.771 3.97-3.967 3.97h-27.017a3.961 3.961 0 0 1-3.967-3.845V15.812a3.964 3.964 0 0 1 3.967-3.78h11.994v.03h30.984V0h-46.944zM160 0v12.055H205.132a3.948 3.948 0 0 1 3.94 3.779v18.3a3.945 3.945 0 0 1-3.94 3.842H173.896V19.019H160v30.98h49.071C216.755 50 223 43.063 223 34.51c0-.128.003-.247 0-.375V15.896v-.062-.313c0-8.554-6.244-15.49-13.928-15.49h-15.013v-.03H160z"/><path d="M222.996 0h19.441L261.5 19.063 280.562 0H300l-25 25 25 25h-19.438L261.5 30.937 242.437 50H223l24.996-25z"/></g></svg>